HIERARCHY
ROOT Hips
{
	OFFSET -3.958830 18.904000 13.208200
	CHANNELS 6 Xposition Yposition Zposition Zrotation Yrotation Xrotation 
	JOINT LHipJoint
	{
		OFFSET 0.000000 0.000000 0.000000
		CHANNELS 3 Zrotation Yrotation Xrotation
		JOINT LeftUpLeg
		{
			OFFSET 1.800000 -1.400000 0.085000
			CHANNELS 3 Zrotation Yrotation Xrotation
			JOINT LeftLeg
			{
				OFFSET 2.215000 -6.000000 0.000000
				CHANNELS 3 Zrotation Yrotation Xrotation
				JOINT LeftFoot
				{
					OFFSET 2.500000 -6.900000 0.000000
					CHANNELS 3 Zrotation Yrotation Xrotation
					JOINT LeftToeBase
					{
						OFFSET 0.200000 -0.500000 1.950000
						CHANNELS 3 Zrotation Yrotation Xrotation
						End Site
						{
							OFFSET 0.000000 0.000000 0.000000
						}
					}
				}
			}
		}
	}
	JOINT RHipJoint
	{
		OFFSET 0.000000 0.000000 0.000000
		CHANNELS 3 Zrotation Yrotation Xrotation
		JOINT RightUpLeg
		{
			OFFSET -1.800000 -1.400000 0.085000
			CHANNELS 3 Zrotation Yrotation Xrotation
			JOINT RightLeg
			{
				OFFSET -2.215000 -6.000000 0.000000
				CHANNELS 3 Zrotation Yrotation Xrotation
				JOINT RightFoot
				{
					OFFSET -2.500000 -6.900000 0.000000
					CHANNELS 3 Zrotation Yrotation Xrotation
					JOINT RightToeBase
					{
						OFFSET -0.200000 -0.500000 1.950000
						CHANNELS 3 Zrotation Yrotation Xrotation
						End Site
						{
							OFFSET 0.000000 0.000000 0.000000
						}
					}
				}
			}
		}
	}
	JOINT LowerBack
	{
		OFFSET 0.000000 0.000000 0.000000
		CHANNELS 3 Zrotation Yrotation Xrotation
		JOINT Spine
		{
			OFFSET -0.087000 1.940000 -0.288900
			CHANNELS 3 Zrotation Yrotation Xrotation
			JOINT Spine1
			{
				OFFSET 0.000000 1.950000 0.060000
				CHANNELS 3 Zrotation Yrotation Xrotation
				JOINT Neck
				{
					OFFSET 0.000000 0.000000 0.000000
					CHANNELS 3 Zrotation Yrotation Xrotation
					JOINT Neck1
					{
						OFFSET 0.000000 1.600000 0.340000
						CHANNELS 3 Zrotation Yrotation Xrotation
						JOINT Head
						{
							OFFSET 0.000000 1.667000 -0.240000
							CHANNELS 3 Zrotation Yrotation Xrotation
							End Site
							{
								OFFSET 0.000000 0.000000 0.000000
							}
						}
					}
				}
				JOINT LeftShoulder
				{
					OFFSET 0.000000 0.000000 0.000000
					CHANNELS 3 Zrotation Yrotation Xrotation
					JOINT LeftArm
					{
						OFFSET 2.700000 1.550000 -0.730000
						CHANNELS 3 Zrotation Yrotation Xrotation
						JOINT LeftForeArm
						{
							OFFSET 5.450000 0.000000 0.000000
							CHANNELS 3 Zrotation Yrotation Xrotation
							JOINT LeftHand
							{
								OFFSET 3.450000 0.000000 0.000000
								CHANNELS 3 Zrotation Yrotation Xrotation
								JOINT LeftHandIndex1
								{
									OFFSET 0.750000 0.000000 0.000000
									CHANNELS 3 Zrotation Yrotation Xrotation
									End Site
									{
										OFFSET 0.000000 0.000000 0.000000
									}
								}
							}
						}
					}
				}
				JOINT RightShoulder
				{
					OFFSET 0.000000 0.000000 0.000000
					CHANNELS 3 Zrotation Yrotation Xrotation
					JOINT RightArm
					{
						OFFSET -2.700000 1.550000 -0.730000
						CHANNELS 3 Zrotation Yrotation Xrotation
						JOINT RightForeArm
						{
							OFFSET -5.450000 0.000000 0.000000
							CHANNELS 3 Zrotation Yrotation Xrotation
							JOINT RightHand
							{
								OFFSET -3.450000 0.000000 0.000000
								CHANNELS 3 Zrotation Yrotation Xrotation
								JOINT RightHandIndex1
								{
									OFFSET -0.750000 0.000000 0.000000
									CHANNELS 3 Zrotation Yrotation Xrotation
									End Site
									{
										OFFSET 0.000000 0.000000 0.000000
									}
								}
							}
						}
					}
				}
			}
		}
	}
}
MOTION
Frames: 4
Frame Time: 0.016667
0.048540 16.572900 -2.540060 0.132891 -14.794650 2.439847 -15.179592 13.574213 3.011619 21.814284 -0.514614 -11.722433 -10.912469 9.429053 17.126566 0.158091 5.978019 2.428216 0.049170 -0.040180 0.065240 18.131712 -10.824456 2.156739 -20.512324 0.145393 -18.836142 6.869413 -6.486652 18.747168 0.015500 -3.898084 2.908174 0.047450 0.229250 0.121560 -3.185832 -2.442916 -7.215725 5.783910 -1.537779 5.542842 4.515167 -2.286821 8.329291 -1.003827 -3.454956 -10.942441 -8.794622 7.063222 35.891870 -3.500850 8.267940 1.293000 -15.176703 -15.051928 6.378637 -35.970977 -11.976341 2.322385 -55.902281 -35.860672 16.826299 -3.874948 3.447678 0.031750 0.236300 -0.109300 0.067250 17.991684 17.147322 6.470510 44.852453 11.701630 -0.402309 14.806596 16.347754 0.931789 2.507638 -1.380898 -0.116440 0.059570 0.025830 -0.074330 
0.077950 16.559820 -2.528820 -0.089051 -14.984248 2.641943 -15.169924 13.552672 2.996325 21.964778 -0.507786 -11.554837 -10.642884 9.214407 16.575465 0.147909 5.896621 2.455689 0.055440 -0.030140 0.071170 18.142480 -10.817175 2.187222 -20.787493 0.191264 -19.142242 7.196776 -6.622178 18.938848 0.005038 -3.941256 2.886483 0.050120 0.222540 0.125940 -3.216876 -2.392729 -7.228754 6.078018 -1.636084 5.514993 4.736038 -2.494985 8.370131 -1.004401 -3.203550 -11.103039 -8.111301 7.233323 35.551443 -3.446300 8.682840 0.880790 -14.619398 -15.432691 6.665800 -35.007863 -11.195062 2.026849 -53.370678 -33.314860 14.581031 -3.869284 3.428699 0.036960 0.234150 -0.099800 0.068230 17.442857 17.352827 6.408641 44.929798 12.346126 -0.215883 14.897239 16.736295 1.006958 2.504384 -1.382620 -0.112740 0.055830 0.020740 -0.076470 
0.122110 16.539410 -2.520020 -0.577761 -15.468945 2.846263 -15.147811 13.550577 2.977489 22.353202 -0.486390 -11.460844 -10.027624 8.972874 16.219623 0.127883 5.811445 2.478493 0.058220 -0.030350 0.095110 18.161517 -10.825797 2.221681 -20.923771 0.310910 -19.651135 7.350842 -6.756616 19.470938 -0.007138 -3.971645 2.864738 0.045120 0.202650 0.128830 -3.272750 -2.335488 -7.258058 6.711324 -1.882021 5.699474 5.183040 -2.922958 8.457180 -1.098932 -2.982664 -11.438730 -7.481632 7.666480 35.540164 -3.895660 9.734780 0.327800 -13.569215 -16.095076 7.202451 -32.569828 -9.776270 1.730770 -49.571166 -28.066827 10.868797 -3.863857 3.380699 0.055860 0.226510 -0.081780 0.057940 16.593341 17.861528 6.287677 45.546617 13.724887 0.101636 14.985340 17.669696 1.165534 2.500412 -1.377907 -0.114290 0.049790 0.015590 -0.091850 
0.183140 16.497910 -2.516570 -1.013494 -15.598020 3.063936 -15.122084 13.538600 2.921261 22.658436 -0.501492 -11.820535 -9.084757 8.768538 16.535374 0.092379 5.725856 2.491867 0.063760 -0.022930 0.114920 18.188358 -10.831816 2.289980 -21.455535 0.424830 -20.336794 7.901173 -7.071815 20.196748 -0.023949 -4.087228 2.804056 0.049800 0.189020 0.135930 -3.350692 -2.244526 -7.284896 7.295281 -2.149174 6.054678 5.444925 -3.348858 8.563747 -1.238173 -2.470984 -11.626822 -6.135183 8.188527 34.875442 -4.061130 10.910410 -0.470620 -12.781520 -16.740090 7.761781 -29.107345 -8.157129 1.553500 -45.156037 -22.827465 7.538564 -3.874452 3.340427 0.065690 0.227620 -0.070830 0.046400 16.061497 18.118362 5.916869 46.304623 15.565817 0.598436 14.670921 18.958413 1.303529 2.486257 -1.381995 -0.115250 0.041320 0.014780 -0.107330 
